<?xml version="1.0" encoding="UTF-8" standalone="no"?>
<svg
   xmlns:dc="http://purl.org/dc/elements/1.1/"
   xmlns:cc="http://creativecommons.org/ns#"
   xmlns:rdf="http://www.w3.org/1999/02/22-rdf-syntax-ns#"
   xmlns:svg="http://www.w3.org/2000/svg"
   xmlns="http://www.w3.org/2000/svg"
   viewBox="0 0 480 480"
   height="480"
   width="480"
   xml:space="preserve"
   id="svg2"
   version="1.1"><metadata
     id="metadata8"><rdf:RDF><cc:Work
         rdf:about=""><dc:format>image/svg+xml</dc:format><dc:type
           rdf:resource="http://purl.org/dc/dcmitype/StillImage" /></cc:Work></rdf:RDF></metadata><defs
     id="defs6"><clipPath
       id="clipPath18"
       clipPathUnits="userSpaceOnUse"><path
         id="path16"
         d="m 207.961,360 c 31.91,-7.299 60.523,-23.278 85.426,-47.768 v 0 c 35.323,-34.727 53.229,-77.206 53.229,-126.251 v 0 c 0,-49.05 -17.902,-91.368 -53.209,-125.782 v 0 C 258.081,25.751 215.27,8.282 166.18,8.282 v 0 H 119.988 V 0.289 h 46.192 c 51.25,0 95.931,18.23 132.804,54.19 v 0 c 36.907,35.973 55.621,80.218 55.621,131.502 v 0 c 0,51.269 -18.711,95.661 -55.61,131.948 v 0 c -19.23,18.908 -40.58,32.955 -63.875,42.071 v 0 z M 97.196,360 C 73.865,350.885 52.457,336.839 33.148,317.934 v 0 C 19.677,304.743 8.618,290.476 0,275.201 v 0 -17.779 c 8.906,19.941 21.839,38.254 38.739,54.803 v 0 C 63.755,336.718 92.445,352.7 124.386,360 v 0 z" /></clipPath><linearGradient
       id="linearGradient36"
       spreadMethod="pad"
       gradientTransform="matrix(-184.08617,-394.77405,-394.77405,184.08617,245.1144,355.73193)"
       gradientUnits="userSpaceOnUse"
       y2="0"
       x2="1"
       y1="0"
       x1="0"><stop
         id="stop24"
         offset="0"
         style="stop-opacity:1;stop-color:#ae0355" /><stop
         id="stop26"
         offset="0.168317"
         style="stop-opacity:1;stop-color:#ff1386" /><stop
         id="stop28"
         offset="0.35396"
         style="stop-opacity:1;stop-color:#ff31a0" /><stop
         id="stop30"
         offset="0.542079"
         style="stop-opacity:1;stop-color:#ff52b8" /><stop
         id="stop32"
         offset="0.732673"
         style="stop-opacity:1;stop-color:#ff83d2" /><stop
         id="stop34"
         offset="1"
         style="stop-opacity:1;stop-color:#ff83d2" /></linearGradient><clipPath
       id="clipPath46"
       clipPathUnits="userSpaceOnUse"><path
         id="path44"
         d="M 87.098,266.39 C 65.611,244.009 54.721,216.957 54.721,185.981 v 0 V 0 h 7.988 v 185.981 c 0,28.842 10.145,54.033 30.148,74.874 v 0 c 19.97,20.792 44.713,31.332 73.554,31.332 v 0 c 28.84,0 53.588,-10.54 73.557,-31.332 v 0 c 20.003,-20.837 30.139,-46.029 30.139,-74.874 v 0 c 0,-28.84 -10.132,-53.872 -30.119,-74.4 v 0 C 220.018,91.079 195.267,80.687 166.411,80.687 v 0 h -46.423 v -7.99 h 46.423 c 31.097,0 57.777,11.205 79.296,33.31 v 0 c 21.499,22.071 32.397,48.978 32.397,79.974 v 0 c 0,30.98 -10.898,58.033 -32.377,80.409 v 0 c -21.531,22.421 -48.216,33.788 -79.316,33.788 v 0 c -31.101,0 -57.786,-11.367 -79.313,-33.788" /></clipPath><linearGradient
       id="linearGradient64"
       spreadMethod="pad"
       gradientTransform="matrix(-139.42159,-298.99057,-298.99057,139.42159,214.62387,289.43982)"
       gradientUnits="userSpaceOnUse"
       y2="0"
       x2="1"
       y1="0"
       x1="0"><stop
         id="stop52"
         offset="0"
         style="stop-opacity:1;stop-color:#ae0355" /><stop
         id="stop54"
         offset="0.168317"
         style="stop-opacity:1;stop-color:#ff1386" /><stop
         id="stop56"
         offset="0.35396"
         style="stop-opacity:1;stop-color:#ff31a0" /><stop
         id="stop58"
         offset="0.542079"
         style="stop-opacity:1;stop-color:#ff52b8" /><stop
         id="stop60"
         offset="0.732673"
         style="stop-opacity:1;stop-color:#ff83d2" /><stop
         id="stop62"
         offset="1"
         style="stop-opacity:1;stop-color:#ff83d2" /></linearGradient><clipPath
       id="clipPath74"
       clipPathUnits="userSpaceOnUse"><path
         id="path72"
         d="M 70.722,282.107 C 45.041,255.357 32.018,223.017 32.018,185.981 v 0 -168.863 h 7.99 v 168.863 c 0,34.904 12.277,65.383 36.473,90.593 v 0 c 24.413,25.419 54.671,38.309 89.93,38.309 v 0 c 35.255,0 65.516,-12.89 89.925,-38.309 v 0 c 24.201,-25.205 36.474,-55.685 36.474,-90.593 v 0 c 0,-34.958 -12.304,-65.318 -36.564,-90.234 v 0 C 231.85,70.691 201.623,57.988 166.411,57.988 v 0 H 119.988 V 50 h 46.423 c 37.445,0 69.601,13.514 95.56,40.172 v 0 c 25.766,26.457 38.828,58.694 38.828,95.809 v 0 c 0,37.042 -13.022,69.385 -38.696,96.128 v 0 c -25.978,27.052 -58.172,40.767 -95.692,40.767 v 0 c -37.52,0 -69.715,-13.717 -95.689,-40.769" /></clipPath><linearGradient
       id="linearGradient92"
       spreadMethod="pad"
       gradientTransform="matrix(-146.54149,-314.25925,-314.25925,146.54149,224.24509,310.07434)"
       gradientUnits="userSpaceOnUse"
       y2="0"
       x2="1"
       y1="0"
       x1="0"><stop
         id="stop80"
         offset="0"
         style="stop-opacity:1;stop-color:#ae0355" /><stop
         id="stop82"
         offset="0.168317"
         style="stop-opacity:1;stop-color:#ff1386" /><stop
         id="stop84"
         offset="0.35396"
         style="stop-opacity:1;stop-color:#ff31a0" /><stop
         id="stop86"
         offset="0.542079"
         style="stop-opacity:1;stop-color:#ff52b8" /><stop
         id="stop88"
         offset="0.732673"
         style="stop-opacity:1;stop-color:#ff83d2" /><stop
         id="stop90"
         offset="1"
         style="stop-opacity:1;stop-color:#ff83d2" /></linearGradient><clipPath
       id="clipPath102"
       clipPathUnits="userSpaceOnUse"><path
         id="path100"
         d="M 49.027,301.716 C 16.036,269.409 0.004,231.553 0.004,185.981 v 0 -147.836 h 7.989 v 147.836 c 0,43.311 15.244,79.298 46.623,110.027 v 0 c 31.534,30.876 68.031,45.884 111.564,45.884 v 0 c 43.515,0 79.926,-14.996 111.301,-45.846 v 0 c 31.249,-30.726 46.437,-66.731 46.437,-110.065 v 0 c 0,-43.299 -15.161,-79.129 -46.364,-109.53 v 0 C 246.18,45.849 209.753,30.98 166.18,30.98 v 0 h -46.192 v -7.993 h 46.192 c 45.752,0 84.015,15.615 116.957,47.742 v 0 c 32.82,31.984 48.77,69.686 48.77,115.252 v 0 c 0,45.589 -15.969,83.454 -48.828,115.763 v 0 c -32.939,32.395 -71.182,48.139 -116.899,48.139 v 0 c -45.728,0 -84.049,-15.754 -117.153,-48.167" /></clipPath><linearGradient
       id="linearGradient120"
       spreadMethod="pad"
       gradientTransform="matrix(-155.87874,-334.28305,-334.28305,155.87874,235.57268,335.26788)"
       gradientUnits="userSpaceOnUse"
       y2="0"
       x2="1"
       y1="0"
       x1="0"><stop
         id="stop108"
         offset="0"
         style="stop-opacity:1;stop-color:#ae0355" /><stop
         id="stop110"
         offset="0.168317"
         style="stop-opacity:1;stop-color:#ff1386" /><stop
         id="stop112"
         offset="0.35396"
         style="stop-opacity:1;stop-color:#ff31a0" /><stop
         id="stop114"
         offset="0.542079"
         style="stop-opacity:1;stop-color:#ff52b8" /><stop
         id="stop116"
         offset="0.732673"
         style="stop-opacity:1;stop-color:#ff83d2" /><stop
         id="stop118"
         offset="1"
         style="stop-opacity:1;stop-color:#ff83d2" /></linearGradient></defs><g
     transform="matrix(1.3333333,0,0,-1.3333333,0,480)"
     id="g10"><g
       id="g12"><g
         clip-path="url(#clipPath18)"
         id="g14"><g
           id="g20"><g
             id="g22"><path
               id="path38"
               style="fill:url(#linearGradient36);stroke:none"
               d="m 207.961,360 c 31.91,-7.299 60.523,-23.278 85.426,-47.768 v 0 c 35.323,-34.727 53.229,-77.206 53.229,-126.251 v 0 c 0,-49.05 -17.902,-91.368 -53.209,-125.782 v 0 C 258.081,25.751 215.27,8.282 166.18,8.282 v 0 H 119.988 V 0.289 h 46.192 c 51.25,0 95.931,18.23 132.804,54.19 v 0 c 36.907,35.973 55.621,80.218 55.621,131.502 v 0 c 0,51.269 -18.711,95.661 -55.61,131.948 v 0 c -19.23,18.908 -40.58,32.955 -63.875,42.071 v 0 z M 97.196,360 C 73.865,350.885 52.457,336.839 33.148,317.934 v 0 C 19.677,304.743 8.618,290.476 0,275.201 v 0 -17.779 c 8.906,19.941 21.839,38.254 38.739,54.803 v 0 C 63.755,336.718 92.445,352.7 124.386,360 v 0 z" /></g></g></g></g><g
       id="g40"><g
         clip-path="url(#clipPath46)"
         id="g42"><g
           id="g48"><g
             id="g50"><path
               id="path66"
               style="fill:url(#linearGradient64);stroke:none"
               d="M 87.098,266.39 C 65.611,244.009 54.721,216.957 54.721,185.981 v 0 V 0 h 7.988 v 185.981 c 0,28.842 10.145,54.033 30.148,74.874 v 0 c 19.97,20.792 44.713,31.332 73.554,31.332 v 0 c 28.84,0 53.588,-10.54 73.557,-31.332 v 0 c 20.003,-20.837 30.139,-46.029 30.139,-74.874 v 0 c 0,-28.84 -10.132,-53.872 -30.119,-74.4 v 0 C 220.018,91.079 195.267,80.687 166.411,80.687 v 0 h -46.423 v -7.99 h 46.423 c 31.097,0 57.777,11.205 79.296,33.31 v 0 c 21.499,22.071 32.397,48.978 32.397,79.974 v 0 c 0,30.98 -10.898,58.033 -32.377,80.409 v 0 c -21.531,22.421 -48.216,33.788 -79.316,33.788 v 0 c -31.101,0 -57.786,-11.367 -79.313,-33.788" /></g></g></g></g><g
       id="g68"><g
         clip-path="url(#clipPath74)"
         id="g70"><g
           id="g76"><g
             id="g78"><path
               id="path94"
               style="fill:url(#linearGradient92);stroke:none"
               d="M 70.722,282.107 C 45.041,255.357 32.018,223.017 32.018,185.981 v 0 -168.863 h 7.99 v 168.863 c 0,34.904 12.277,65.383 36.473,90.593 v 0 c 24.413,25.419 54.671,38.309 89.93,38.309 v 0 c 35.255,0 65.516,-12.89 89.925,-38.309 v 0 c 24.201,-25.205 36.474,-55.685 36.474,-90.593 v 0 c 0,-34.958 -12.304,-65.318 -36.564,-90.234 v 0 C 231.85,70.691 201.623,57.988 166.411,57.988 v 0 H 119.988 V 50 h 46.423 c 37.445,0 69.601,13.514 95.56,40.172 v 0 c 25.766,26.457 38.828,58.694 38.828,95.809 v 0 c 0,37.042 -13.022,69.385 -38.696,96.128 v 0 c -25.978,27.052 -58.172,40.767 -95.692,40.767 v 0 c -37.52,0 -69.715,-13.717 -95.689,-40.769" /></g></g></g></g><g
       id="g96"><g
         clip-path="url(#clipPath102)"
         id="g98"><g
           id="g104"><g
             id="g106"><path
               id="path122"
               style="fill:url(#linearGradient120);stroke:none"
               d="M 49.027,301.716 C 16.036,269.409 0.004,231.553 0.004,185.981 v 0 -147.836 h 7.989 v 147.836 c 0,43.311 15.244,79.298 46.623,110.027 v 0 c 31.534,30.876 68.031,45.884 111.564,45.884 v 0 c 43.515,0 79.926,-14.996 111.301,-45.846 v 0 c 31.249,-30.726 46.437,-66.731 46.437,-110.065 v 0 c 0,-43.299 -15.161,-79.129 -46.364,-109.53 v 0 C 246.18,45.849 209.753,30.98 166.18,30.98 v 0 h -46.192 v -7.993 h 46.192 c 45.752,0 84.015,15.615 116.957,47.742 v 0 c 32.82,31.984 48.77,69.686 48.77,115.252 v 0 c 0,45.589 -15.969,83.454 -48.828,115.763 v 0 c -32.939,32.395 -71.182,48.139 -116.899,48.139 v 0 c -45.728,0 -84.049,-15.754 -117.153,-48.167" /></g></g></g></g></g></svg>